<?xml version="1.0" standalone="no"?>
<!DOCTYPE svg PUBLIC "-//W3C//DTD SVG 20010904//EN"
 "http://www.w3.org/TR/2001/REC-SVG-20010904/DTD/svg10.dtd">
<svg version="1.0" xmlns="http://www.w3.org/2000/svg"
 width="512.000000pt" height="512.000000pt" viewBox="0 0 512.000000 512.000000"
 preserveAspectRatio="xMidYMid meet">

<g transform="translate(0.000000,512.000000) scale(0.100000,-0.100000)"
fill="#000000" stroke="none">
<path d="M2425 4843 c-88 -32 -134 -67 -450 -344 l-310 -272 -6 69 c-8 98 -33
141 -106 178 -27 14 -74 16 -318 16 -326 0 -340 -3 -392 -82 l-28 -42 -5 -441
-5 -441 -240 -208 c-298 -258 -305 -265 -305 -311 0 -50 36 -85 88 -85 37 0
57 16 334 254 162 140 298 262 302 271 3 9 6 214 6 456 l0 439 240 0 240 0 0
-150 c0 -195 11 -220 96 -220 37 0 28 -7 582 475 139 121 272 231 295 245 35
21 55 25 117 25 62 0 82 -4 117 -25 23 -14 159 -126 302 -250 l260 -225 1
-296 c0 -326 9 -393 67 -502 41 -78 174 -206 254 -245 171 -83 346 -83 519 0
160 77 279 230 316 408 12 60 15 138 12 415 -3 330 -4 341 -26 385 -36 73 -78
116 -144 149 l-61 31 -352 0 -352 0 -61 -31 c-34 -17 -77 -48 -95 -69 l-33
-39 -230 199 c-285 249 -326 273 -478 278 -77 2 -113 -2 -151 -15z m1735 -519
c50 -30 60 -60 60 -188 l0 -116 -400 0 -400 0 0 105 c0 123 13 165 62 195 31
19 50 20 341 20 268 0 313 -2 337 -16z m60 -513 c0 -27 -3 -29 -57 -40 -208
-40 -447 -40 -675 0 -65 12 -68 13 -68 41 l0 28 400 0 400 0 0 -29z m-674
-236 c128 -19 417 -19 549 0 55 8 103 15 108 15 15 0 6 -48 -22 -106 -138
-292 -558 -302 -709 -16 -32 61 -49 122 -34 122 5 0 53 -7 108 -15z"/>
<path d="M2427 4231 c-32 -11 -75 -30 -96 -44 -76 -50 -1387 -1218 -1428
-1272 -23 -31 -52 -81 -65 -113 l-23 -57 -3 -1040 c-2 -772 0 -1054 9 -1095
33 -157 147 -284 298 -330 61 -19 95 -20 971 -20 890 0 908 0 933 20 31 25 42
65 26 102 -25 60 15 58 -956 59 -653 0 -896 4 -920 12 -60 22 -117 72 -148
128 l-30 54 0 1040 0 1040 27 52 c24 44 110 124 570 530 299 262 606 533 683
601 168 149 197 166 285 166 84 0 115 -17 255 -139 61 -53 124 -103 142 -111
65 -29 132 28 119 102 -9 47 -223 240 -324 291 -65 33 -81 36 -170 40 -76 2
-110 -1 -155 -16z"/>
<path d="M3237 3055 c-104 -36 -173 -82 -262 -170 -88 -88 -142 -178 -172
-286 -16 -56 -18 -111 -18 -424 0 -406 3 -423 80 -540 64 -96 151 -154 328
-216 l67 -24 0 -452 c0 -427 1 -455 20 -505 23 -63 85 -128 150 -157 42 -19
65 -21 395 -21 346 0 351 0 400 24 29 13 69 44 93 71 71 81 72 89 72 595 l0
446 106 38 c177 64 264 138 331 281 l28 60 3 378 c3 316 1 387 -12 440 -55
218 -235 401 -466 473 -93 29 -156 10 -313 -91 -129 -84 -178 -105 -243 -105
-63 0 -125 27 -244 105 -164 109 -224 123 -343 80z m156 -181 c18 -9 80 -45
139 -81 59 -35 128 -73 153 -84 l45 -20 0 -419 0 -418 26 -31 c21 -26 33 -31
69 -31 36 0 48 5 69 31 l26 31 0 418 0 419 48 21 c26 11 105 55 176 98 152 90
170 93 269 44 98 -49 179 -128 224 -220 l38 -76 3 -360 3 -360 -31 -62 c-44
-90 -112 -139 -235 -170 l-25 -6 0 367 0 367 -29 29 c-37 37 -87 39 -123 6
l-25 -23 -6 -399 c-4 -220 -7 -635 -7 -923 l0 -524 -29 -29 -29 -29 -316 0
-316 0 -32 29 -33 29 -3 923 c-2 919 -3 923 -23 945 -28 29 -65 38 -101 23
-57 -23 -58 -34 -58 -430 l0 -361 -25 6 c-114 29 -192 84 -237 168 -22 42 -23
51 -26 368 -4 353 1 407 46 500 37 75 119 160 193 200 100 53 132 59 182 34z"/>
<path d="M1939 2746 c-102 -27 -171 -87 -218 -186 l-26 -55 0 -535 0 -535 33
-67 c36 -75 88 -123 168 -160 48 -23 56 -23 472 -26 l423 -3 29 30 c38 38 41
88 6 128 l-24 28 -420 5 c-406 5 -422 6 -449 26 -64 47 -63 39 -63 574 0 535
-1 527 63 574 26 20 46 21 284 26 l255 5 29 33 c32 35 35 57 17 97 -23 51 -47
55 -300 54 -151 0 -249 -5 -279 -13z"/>
</g>
</svg>
