<?xml version="1.0" standalone="no"?>
<!DOCTYPE svg PUBLIC "-//W3C//DTD SVG 20010904//EN"
 "http://www.w3.org/TR/2001/REC-SVG-20010904/DTD/svg10.dtd">
<svg version="1.0" xmlns="http://www.w3.org/2000/svg"
 width="512.000000pt" height="512.000000pt" viewBox="0 0 512.000000 512.000000"
 preserveAspectRatio="xMidYMid meet">

<g transform="translate(0.000000,512.000000) scale(0.100000,-0.100000)"
fill="#000000" stroke="none">
<path d="M2505 4935 c-24 -23 -25 -29 -25 -159 l0 -135 -57 -6 c-316 -33 -519
-87 -758 -199 -323 -152 -627 -416 -836 -727 -198 -295 -301 -596 -344 -1011
l-6 -58 -135 0 c-130 0 -136 -1 -159 -25 -33 -32 -33 -78 0 -110 23 -24 29
-25 159 -25 l135 0 6 -57 c43 -413 140 -700 338 -1002 92 -139 170 -233 304
-362 192 -185 417 -330 662 -428 196 -78 372 -119 634 -146 l57 -6 0 -135 c0
-130 1 -136 25 -159 32 -33 78 -33 110 0 24 23 25 29 25 159 l0 135 58 6 c479
49 835 190 1173 463 108 87 293 282 369 390 234 330 349 645 395 1085 l6 57
133 0 c119 0 134 2 154 20 28 27 37 62 21 92 -23 43 -38 47 -176 48 l-132 0
-6 58 c-33 315 -85 513 -199 757 -118 252 -327 518 -556 710 -165 138 -423
284 -625 355 -170 60 -312 89 -557 115 l-58 6 0 135 c0 130 -1 136 -25 159
-15 16 -36 25 -55 25 -19 0 -40 -9 -55 -25z m-25 -510 c0 -67 29 -105 80 -105
19 0 40 9 55 25 21 20 25 34 25 80 l0 56 43 -5 c23 -3 69 -8 102 -11 179 -18
413 -85 590 -169 404 -192 714 -499 910 -901 93 -191 161 -421 180 -610 3 -33
8 -79 11 -102 l5 -43 -56 0 c-46 0 -60 -4 -80 -25 -33 -32 -33 -78 0 -110 20
-21 34 -25 80 -25 l55 0 -6 -57 c-48 -494 -230 -890 -559 -1218 -328 -329
-724 -511 -1217 -559 l-58 -6 0 55 c0 46 -4 60 -25 80 -32 33 -78 33 -110 0
-21 -20 -25 -34 -25 -80 l0 -56 -42 5 c-24 3 -70 8 -103 11 -99 10 -252 44
-370 82 -574 184 -1044 654 -1228 1228 -38 118 -72 271 -82 370 -3 33 -8 79
-11 103 l-5 42 56 0 c46 0 60 4 80 25 33 32 33 78 0 110 -20 21 -34 25 -80 25
l-56 0 6 63 c27 259 82 465 179 672 304 642 906 1048 1639 1104 14 1 17 -8 17
-54z"/>
<path d="M2370 4229 c-580 -66 -1060 -409 -1315 -941 -330 -687 -172 -1489
388 -1978 635 -555 1551 -569 2197 -33 590 490 762 1304 425 2011 -124 260
-294 467 -523 638 -97 72 -326 190 -443 228 -227 73 -498 101 -729 75z m490
-179 c284 -58 528 -183 729 -375 244 -233 396 -512 463 -850 31 -157 31 -416
-1 -565 -44 -208 -113 -372 -229 -545 -57 -86 -205 -255 -222 -255 -4 0 -11
21 -15 47 -11 78 -63 206 -113 282 -122 185 -316 317 -522 355 -63 12 -65 13
-68 44 -3 30 0 33 76 71 329 165 511 499 471 866 -40 376 -287 669 -644 766
-65 18 -107 22 -225 22 -165 0 -250 -17 -379 -78 -544 -258 -668 -1015 -235
-1426 72 -67 126 -105 222 -153 70 -35 73 -38 70 -68 -3 -30 -5 -32 -73 -46
-211 -42 -395 -168 -517 -353 -50 -76 -102 -204 -113 -282 -4 -26 -11 -47 -15
-47 -17 0 -165 169 -222 255 -116 173 -185 337 -229 545 -32 150 -33 409 -1
565 134 675 646 1161 1308 1245 116 15 366 4 484 -20z m-120 -317 c146 -34
299 -131 386 -246 103 -136 148 -277 147 -462 0 -102 -4 -132 -26 -200 -38
-115 -90 -199 -182 -290 -91 -91 -175 -144 -290 -182 -71 -23 -96 -26 -215
-26 -119 0 -144 3 -215 26 -114 38 -198 90 -290 182 -91 91 -144 175 -182 290
-22 68 -26 98 -26 200 -1 138 16 219 67 328 142 307 478 461 826 380z m-23
-1601 c-11 -67 -88 -132 -157 -132 -69 0 -146 65 -157 132 l-5 33 162 0 162 0
-5 -33z m-407 -167 c14 -18 49 -49 78 -69 142 -94 320 -61 430 79 l21 27 83
-17 c293 -59 517 -323 518 -613 l0 -52 -67 -44 c-479 -309 -1158 -308 -1625 1
l-68 45 0 51 c1 283 222 551 505 611 96 20 97 20 125 -19z"/>
<path d="M640 4787 c-49 -16 -133 -102 -148 -153 -8 -26 -12 -112 -12 -233 0
-190 0 -192 25 -216 15 -16 36 -25 55 -25 19 0 40 9 55 25 25 24 25 26 25 215
0 257 -17 240 240 240 189 0 191 0 215 25 33 32 33 78 0 110 -24 25 -25 25
-222 24 -113 -1 -213 -6 -233 -12z"/>
<path d="M4039 4790 c-9 -5 -22 -23 -29 -40 -15 -35 0 -84 31 -100 10 -6 101
-10 204 -10 251 0 235 16 235 -237 1 -198 3 -208 48 -232 30 -16 65 -7 92 21
19 20 20 35 20 211 0 228 -6 254 -75 322 -31 32 -65 55 -91 63 -50 14 -411 16
-435 2z"/>
<path d="M525 948 c-43 -23 -45 -34 -45 -231 0 -228 6 -254 75 -322 68 -69 94
-75 322 -75 176 0 191 1 211 20 28 27 37 62 21 92 -24 45 -34 47 -232 48 -253
0 -237 -16 -237 237 -1 197 -3 208 -47 231 -27 15 -42 15 -68 0z"/>
<path d="M4505 935 c-25 -24 -25 -26 -25 -215 0 -257 17 -240 -240 -240 -189
0 -191 0 -215 -25 -16 -15 -25 -36 -25 -55 0 -19 9 -40 25 -55 24 -25 26 -25
216 -25 230 0 256 6 324 75 69 68 75 94 75 324 0 190 0 192 -25 216 -15 16
-36 25 -55 25 -19 0 -40 -9 -55 -25z"/>
</g>
</svg>
