<?xml version="1.0" standalone="no"?>
<!DOCTYPE svg PUBLIC "-//W3C//DTD SVG 20010904//EN"
 "http://www.w3.org/TR/2001/REC-SVG-20010904/DTD/svg10.dtd">
<svg version="1.0" xmlns="http://www.w3.org/2000/svg"
 width="512.000000pt" height="512.000000pt" viewBox="0 0 512.000000 512.000000"
 preserveAspectRatio="xMidYMid meet">

<g transform="translate(0.000000,512.000000) scale(0.100000,-0.100000)"
fill="#000000" stroke="none">
<path d="M1320 3850 c-663 -600 -1215 -1101 -1227 -1115 -13 -15 -23 -36 -23
-49 0 -22 178 -234 308 -369 73 -75 78 -73 272 102 l165 148 5 -1179 c5 -1153
5 -1180 24 -1194 30 -21 3402 -21 3432 0 19 14 19 41 24 1194 l5 1180 165
-149 c139 -126 170 -149 197 -149 28 0 47 18 185 172 192 216 202 229 194 262
-4 16 -150 154 -426 403 l-419 378 -1 501 c0 472 -1 502 -18 517 -17 15 -60
17 -409 17 -466 0 -424 14 -433 -146 l-5 -104 -370 334 c-339 307 -373 335
-405 335 -32 0 -128 -84 -1240 -1089z m2403 -116 c636 -575 1157 -1049 1157
-1052 0 -4 -50 -62 -110 -129 l-109 -123 -1031 933 c-1145 1035 -1064 970
-1137 904 -21 -19 -487 -440 -1036 -936 l-999 -901 -42 47 c-133 149 -176 199
-176 205 0 5 1515 1378 2280 2066 19 17 37 32 40 32 3 0 526 -471 1163 -1046z
m342 643 c3 -6 4 -182 3 -390 l-3 -378 -292 263 -293 263 0 128 0 127 290 0
c224 0 292 -3 295 -13z m-702 -958 l797 -720 0 -1195 0 -1194 -500 0 -500 0 0
825 c0 591 -3 831 -11 849 -7 13 -23 30 -38 36 -18 7 -193 10 -568 8 -505 -3
-544 -4 -560 -21 -17 -17 -18 -67 -21 -857 l-2 -840 -500 0 -500 0 0 1195 0
1194 798 721 c438 396 799 720 802 720 3 0 364 -324 803 -721z m-343 -2319 l0
-790 -460 0 -460 0 0 790 0 790 460 0 460 0 0 -790z"/>
</g>
</svg>
