<?xml version="1.0" standalone="no"?>
<!DOCTYPE svg PUBLIC "-//W3C//DTD SVG 20010904//EN"
 "http://www.w3.org/TR/2001/REC-SVG-20010904/DTD/svg10.dtd">
<svg version="1.0" xmlns="http://www.w3.org/2000/svg"
 width="512.000000pt" height="512.000000pt" viewBox="0 0 512.000000 512.000000"
 preserveAspectRatio="xMidYMid meet">

<g transform="translate(0.000000,512.000000) scale(0.100000,-0.100000)"
fill="#000000" stroke="none">
<path d="M2495 5106 c-41 -18 -83 -69 -90 -109 -4 -18 -5 -118 -3 -224 3 -210
5 -218 72 -267 39 -29 133 -29 172 0 68 51 69 53 69 294 0 205 -1 220 -21 246
-11 15 -32 37 -46 47 -33 25 -113 32 -153 13z"/>
<path d="M816 4410 c-42 -13 -95 -68 -107 -112 -20 -77 -2 -108 159 -270 124
-124 153 -148 185 -154 113 -20 213 80 192 193 -6 32 -30 61 -143 176 -76 76
-148 145 -162 152 -36 19 -90 25 -124 15z"/>
<path d="M4205 4405 c-28 -10 -81 -55 -182 -157 -118 -120 -142 -149 -148
-181 -21 -113 79 -213 192 -192 32 6 61 30 176 143 76 76 146 151 155 167 8
17 16 51 16 77 0 107 -107 180 -209 143z"/>
<path d="M2095 4066 c-94 -41 -124 -169 -58 -247 43 -50 76 -59 228 -59 l135
0 0 -123 0 -123 -97 -13 c-630 -84 -1185 -484 -1463 -1056 -130 -266 -184
-481 -197 -776 l-6 -146 -42 -11 c-107 -29 -150 -167 -78 -253 47 -56 67 -59
348 -59 l255 0 0 -120 0 -120 -296 0 c-252 0 -301 -2 -330 -16 -68 -32 -77
-53 -150 -347 l-68 -275 -87 -4 c-69 -2 -93 -7 -115 -24 -53 -39 -69 -71 -69
-134 0 -63 16 -95 69 -134 l27 -21 2459 0 2459 0 27 21 c53 39 69 71 69 134 0
63 -16 95 -69 134 -22 17 -46 22 -115 24 l-87 4 -68 275 c-55 219 -74 281 -94
305 -47 56 -63 58 -387 58 l-295 0 0 120 0 120 255 0 c281 0 301 3 348 59 72
86 29 224 -78 253 l-42 11 -6 146 c-13 291 -67 509 -192 766 -189 389 -485
689 -870 880 -82 41 -192 88 -244 105 -107 36 -284 76 -384 86 l-67 7 0 123 0
123 149 3 c133 3 153 5 177 24 53 39 69 71 69 134 0 63 -16 95 -69 134 -27 20
-40 21 -474 23 -356 2 -453 0 -477 -11z m768 -896 c346 -68 677 -258 900 -518
246 -286 378 -619 394 -994 l6 -138 -1603 0 -1603 0 6 138 c24 549 299 1016
772 1312 172 107 418 192 639 220 115 14 366 4 489 -20z m817 -2090 l0 -120
-1120 0 -1120 0 0 120 0 120 1120 0 1120 0 0 -120z m793 -592 c21 -84 37 -156
37 -160 0 -10 -3900 -10 -3900 0 0 4 16 76 37 160 l37 152 1876 0 1876 0 37
-152z"/>
<path d="M95 2706 c-97 -43 -124 -171 -54 -251 45 -51 78 -57 301 -53 215 3
223 5 272 72 29 39 29 133 0 172 -50 67 -55 69 -282 71 -157 2 -214 0 -237
-11z"/>
<path d="M4575 2706 c-97 -43 -124 -171 -54 -251 45 -51 78 -57 301 -53 215 3
223 5 272 72 29 39 29 133 0 172 -50 67 -55 69 -282 71 -157 2 -214 0 -237
-11z"/>
</g>
</svg>
